<svg xmlns="http://www.w3.org/2000/svg" version="1.1" xmlns:xlink="http://www.w3.org/1999/xlink" xmlns:svgjs="http://svgjs.dev/svgjs" width="2000" height="1999" viewBox="0 0 2000 1999"><g transform="matrix(1,0,0,1,-0.431486880466764,-0.4312711370263287)"><svg viewBox="0 0 343 343" data-background-color="#ffffff" preserveAspectRatio="xMidYMid meet" height="1999" width="2000" xmlns="http://www.w3.org/2000/svg" xmlns:xlink="http://www.w3.org/1999/xlink"><g id="tight-bounds" transform="matrix(1,0,0,1,0.0740000000000407,0.07400000000001228)"><svg viewBox="0 0 342.85155851775386 342.85155851775386" height="342.85155851775386" width="342.85155851775386"><g><svg></svg></g><g><svg viewBox="0 0 342.85155851775386 342.85155851775386" height="342.85155851775386" width="342.85155851775386"><g><path d="M0 171.426c0-94.676 76.75-171.426 171.426-171.426 94.676 0 171.426 76.75 171.426 171.426 0 94.676-76.75 171.426-171.426 171.426-94.676 0-171.426-76.75-171.426-171.426zM171.426 328.666c86.841 0 157.24-70.399 157.24-157.24 0-86.841-70.399-157.24-157.24-157.24-86.841 0-157.24 70.399-157.24 157.24 0 86.841 70.399 157.24 157.24 157.24z" data-fill-palette-color="tertiary" fill="#ed2647" stroke="transparent"></path><ellipse rx="164.56874808852186" ry="164.56874808852186" cx="171.42577925887693" cy="171.42577925887693" fill="#ed2647" stroke="transparent" stroke-width="0" fill-opacity="1" data-fill-palette-color="tertiary"></ellipse></g><g transform="matrix(1,0,0,1,64.84655864529837,92.77454138398397)"><svg viewBox="0 0 213.1584412271571 157.3024757497859" height="157.3024757497859" width="213.1584412271571"><g><svg viewBox="0 0 213.1584412271571 157.3024757497859" height="157.3024757497859" width="213.1584412271571"><g><svg viewBox="0 0 213.1584412271571 157.3024757497859" height="157.3024757497859" width="213.1584412271571"><g><svg viewBox="0 0 213.1584412271571 157.3024757497859" height="157.3024757497859" width="213.1584412271571"><g id="textblocktransform"><svg viewBox="0 0 213.1584412271571 157.3024757497859" height="157.3024757497859" width="213.1584412271571" id="textblock"><g><svg viewBox="0 0 213.1584412271571 157.3024757497859" height="157.3024757497859" width="213.1584412271571"><g transform="matrix(1,0,0,1,0,0)"><svg width="213.1584412271571" viewBox="4.15 -26.05 35.300000000000004 26.05" height="157.3024757497859" data-palette-color="#ffffff"><path d="M31.1-26.05Q35.05-26.05 37.25-23.75 39.45-21.45 39.45-17.2L39.45-17.2 39.45 0 34.75 0 34.75-16.35Q34.75-22.3 30.15-22.3L30.15-22.3Q28.55-22.3 27.18-21.35 25.8-20.4 24.98-18.78 24.15-17.15 24.15-15.2L24.15-15.2 24.15 0 19.45 0 19.45-16.35Q19.45-22.3 14.85-22.3L14.85-22.3Q13.25-22.3 11.88-21.35 10.5-20.4 9.68-18.78 8.85-17.15 8.85-15.2L8.85-15.2 8.85 0 4.15 0 4.15-25.55 7.55-25.55 8.2-21.8Q11.1-26.05 16.25-26.05L16.25-26.05Q21.3-26.05 23.25-21.8L23.25-21.8Q24.95-24.2 26.9-25.13 28.85-26.05 31.1-26.05L31.1-26.05Z" opacity="1" transform="matrix(1,0,0,1,0,0)" fill="#ffffff" class="wordmark-text-0" data-fill-palette-color="quaternary" id="text-0"></path></svg></g></svg></g></svg></g></svg></g><g></g></svg></g></svg></g></svg></g></svg></g><defs></defs></svg><rect width="342.85155851775386" height="342.85155851775386" fill="none" stroke="none" visibility="hidden"></rect></g></svg></g></svg>